<svg width="11" height="6" viewBox="0 0 11 6" fill="none" xmlns="http://www.w3.org/2000/svg">
<path d="M9.03771 0.101898C9.08324 0.0532292 9.14633 0.0247615 9.21295 0.0228194C9.27957 0.0208774 9.34421 0.0456218 9.3925 0.0915551L9.93764 0.605809C9.98727 0.649741 10.0165 0.712246 10.0185 0.778501C10.0204 0.844755 9.99482 0.908858 9.94783 0.955607L5.48935 5.68183C5.42118 5.75418 5.32707 5.7965 5.22771 5.79949L5.09779 5.80327C4.99842 5.80608 4.902 5.76932 4.82973 5.70106L0.103512 1.24258C0.0538795 1.19864 0.0246295 1.13614 0.0226982 1.06988C0.0207668 1.00363 0.046326 0.939527 0.093315 0.892778L0.607569 0.347642C0.653104 0.298974 0.716192 0.270506 0.782812 0.268564C0.849433 0.266622 0.914071 0.291367 0.962364 0.3373L5.11774 4.25727L9.03771 0.101898Z" fill="black"/>
</svg>
