<svg width="7" height="12" viewBox="0 0 7 12" fill="none" xmlns="http://www.w3.org/2000/svg">
    <path d="M6.13542 1.9375H4.19792C3.84123 1.9375 3.55208 2.22665 3.55208 2.58333V4.52083H6.13542C6.20887 4.5192 6.27854 4.55338 6.32221 4.61246C6.36588 4.67155 6.37811 4.74817 6.355 4.81792L5.87708 6.23875C5.83304 6.36916 5.71118 6.45731 5.57354 6.45833H3.55208V11.3021C3.55208 11.4804 3.40751 11.625 3.22917 11.625H1.61458C1.43624 11.625 1.29167 11.4804 1.29167 11.3021V6.45833H0.322917C0.144575 6.45833 0 6.31376 0 6.13542V4.84375C0 4.66541 0.144575 4.52083 0.322917 4.52083H1.29167V2.58333C1.29167 1.1566 2.44826 0 3.875 0H6.13542C6.31376 0 6.45833 0.144575 6.45833 0.322917V1.61458C6.45833 1.79293 6.31376 1.9375 6.13542 1.9375Z" fill="#707070"/>
</svg>
