<svg width="13" height="13" viewBox="0 0 13 13" fill="none" xmlns="http://www.w3.org/2000/svg">
    <path fill-rule="evenodd" clip-rule="evenodd" d="M9.35408 0.645996H4.18742C2.404 0.645996 0.958252 2.09174 0.958252 3.87516V9.04183C0.958252 10.8252 2.404 12.271 4.18742 12.271H9.35408C11.1375 12.271 12.5833 10.8252 12.5833 9.04183V3.87516C12.5833 2.09174 11.1375 0.645996 9.35408 0.645996ZM11.4529 9.04187C11.4493 10.1996 10.5117 11.1373 9.35391 11.1408H4.18725C3.0295 11.1373 2.09183 10.1996 2.08829 9.04187V3.8752C2.09183 2.71745 3.0295 1.77979 4.18725 1.77625H9.35391C10.5117 1.77979 11.4493 2.71745 11.4529 3.8752V9.04187ZM9.83829 4.03666C10.195 4.03666 10.4841 3.74751 10.4841 3.39083C10.4841 3.03414 10.195 2.745 9.83829 2.745C9.48161 2.745 9.19246 3.03414 9.19246 3.39083C9.19246 3.74751 9.48161 4.03666 9.83829 4.03666ZM6.77058 3.55225C5.16551 3.55225 3.86433 4.85343 3.86433 6.4585C3.86433 8.06358 5.16551 9.36475 6.77058 9.36475C8.37566 9.36475 9.67683 8.06358 9.67683 6.4585C9.67855 5.68719 9.37291 4.94698 8.82751 4.40158C8.28211 3.85617 7.5419 3.55053 6.77058 3.55225ZM4.99454 6.45854C4.99454 7.43942 5.7897 8.23458 6.77058 8.23458C7.75146 8.23458 8.54662 7.43942 8.54662 6.45854C8.54662 5.47766 7.75146 4.6825 6.77058 4.6825C5.7897 4.6825 4.99454 5.47766 4.99454 6.45854Z" fill="#707070"/>
</svg>
