<svg width="37" height="37" viewBox="0 0 37 37" fill="none" xmlns="http://www.w3.org/2000/svg">
<path d="M22.5216 4.33643C30.226 4.33643 36.5002 10.4958 36.5002 18.0738C36.5002 25.6359 30.226 31.7952 22.5216 31.7952C14.8173 31.7952 8.54312 25.6359 8.54312 18.0738C8.54312 10.4958 14.8173 4.33643 22.5216 4.33643ZM20.9295 12.6151C20.6327 12.6151 20.3493 12.6814 20.0794 12.8138C19.7421 12.9993 19.4723 13.2907 19.3239 13.6351C19.2294 13.8735 19.081 14.5888 19.081 14.602C18.9326 15.3835 18.8516 16.6551 18.8516 18.0592C18.8516 19.3984 18.9326 20.6157 19.054 21.4104C19.0675 21.4237 19.2159 22.3111 19.3778 22.6158C19.6747 23.1721 20.2549 23.5165 20.8755 23.5165H20.9295C21.3343 23.5033 22.1843 23.1589 22.1843 23.1456C23.6146 22.5628 26.4345 20.7481 27.5679 19.5427L27.6489 19.4633C27.7973 19.3176 27.9862 19.0924 28.0267 19.0394C28.2426 18.7612 28.3505 18.4168 28.3505 18.0738C28.3505 17.6883 28.2291 17.3307 27.9997 17.0393C27.9457 16.9863 27.7433 16.7611 27.5545 16.5757C26.448 15.41 23.5606 13.5026 22.0494 12.9198C21.82 12.8284 21.2398 12.6284 20.9295 12.6151Z" fill="#5F6064"/>
<path fill-rule="evenodd" clip-rule="evenodd" d="M18.6552 0C8.38628 2.53397e-05 0 8.18561 0 18.3584C0 28.5312 8.38628 36.7168 18.6552 36.7168V32.7168C10.5273 32.7168 4 26.2546 4 18.3584C4 10.4623 10.5273 4.00003 18.6552 4V0Z" fill="#FF2626"/>
</svg>
