<svg width="40" height="40" viewBox="0 0 40 40" fill="none" xmlns="http://www.w3.org/2000/svg">
    <path d="M17.9199 33.0136L17.9192 33.0129C13.6177 29.1124 10.0874 25.9066 7.6267 22.8961C5.17146 19.8923 3.83331 17.144 3.83331 14.1667C3.83331 9.2934 7.64219 5.5 12.5 5.5C15.2488 5.5 17.8954 6.78223 19.6206 8.79231L20 9.23438L20.3794 8.79231C22.1046 6.78223 24.7511 5.5 27.5 5.5C32.3578 5.5 36.1666 9.2934 36.1666 14.1667C36.1666 17.144 34.8285 19.8923 32.3733 22.8961C29.9125 25.9066 26.3823 29.1124 22.0808 33.0129L22.0801 33.0136L20 34.9072L17.9199 33.0136Z" fill="white" stroke="white"/>
</svg>
