<svg width="18" height="14" viewBox="0 0 18 14" fill="none" xmlns="http://www.w3.org/2000/svg">
<path d="M16.6191 3.143H6.14289M4.23812 3.143H1.38098M16.6191 11.7144H6.14289M4.23812 11.7144H1.38098M11.8572 7.42871H1.38098M16.6191 7.42871H13.7619M5.19051 1.42871C5.44309 1.42871 5.68533 1.51902 5.86394 1.67976C6.04255 1.84051 6.14289 2.05853 6.14289 2.28585V4.00014C6.14289 4.22747 6.04255 4.44549 5.86394 4.60623C5.68533 4.76698 5.44309 4.85728 5.19051 4.85728C4.93792 4.85728 4.69568 4.76698 4.51707 4.60623C4.33846 4.44549 4.23812 4.22747 4.23812 4.00014V2.28585C4.23812 2.05853 4.33846 1.84051 4.51707 1.67976C4.69568 1.51902 4.93792 1.42871 5.19051 1.42871V1.42871ZM5.19051 10.0001C5.44309 10.0001 5.68533 10.0904 5.86394 10.2512C6.04255 10.4119 6.14289 10.63 6.14289 10.8573V12.5716C6.14289 12.7989 6.04255 13.0169 5.86394 13.1777C5.68533 13.3384 5.44309 13.4287 5.19051 13.4287C4.93792 13.4287 4.69568 13.3384 4.51707 13.1777C4.33846 13.0169 4.23812 12.7989 4.23812 12.5716V10.8573C4.23812 10.63 4.33846 10.4119 4.51707 10.2512C4.69568 10.0904 4.93792 10.0001 5.19051 10.0001ZM12.8096 5.71443C13.0621 5.71443 13.3044 5.80473 13.483 5.96548C13.6616 6.12622 13.7619 6.34424 13.7619 6.57157V8.28585C13.7619 8.51318 13.6616 8.7312 13.483 8.89195C13.3044 9.05269 13.0621 9.143 12.8096 9.143C12.557 9.143 12.3147 9.05269 12.1361 8.89195C11.9575 8.7312 11.8572 8.51318 11.8572 8.28585V6.57157C11.8572 6.34424 11.9575 6.12622 12.1361 5.96548C12.3147 5.80473 12.557 5.71443 12.8096 5.71443V5.71443Z" stroke="black" stroke-linecap="round" stroke-linejoin="round"/>
</svg>
