<svg width="56" height="56" viewBox="0 0 56 56" fill="none" xmlns="http://www.w3.org/2000/svg">
<rect x="0.5" y="0.5" width="55" height="55" rx="27.5" stroke="#E7E7E7"/>
<path d="M28.0206 18.91C24.7106 18.91 22.0206 21.6 22.0206 24.91V27.8C22.0206 28.41 21.7606 29.34 21.4506 29.86L20.3006 31.77C19.5906 32.95 20.0806 34.26 21.3806 34.7C25.6906 36.14 30.3406 36.14 34.6506 34.7C35.8606 34.3 36.3906 32.87 35.7306 31.77L34.5806 29.86C34.2806 29.34 34.0206 28.41 34.0206 27.8V24.91C34.0206 21.61 31.3206 18.91 28.0206 18.91Z" stroke="#2E2A40" stroke-width="1.5" stroke-miterlimit="10" stroke-linecap="round"/>
<path d="M29.8699 19.2C29.5599 19.11 29.2399 19.04 28.9099 19C27.9499 18.88 27.0299 18.95 26.1699 19.2C26.4599 18.46 27.1799 17.94 28.0199 17.94C28.8599 17.94 29.5799 18.46 29.8699 19.2Z" stroke="#2E2A40" stroke-width="1.5" stroke-miterlimit="10" stroke-linecap="round" stroke-linejoin="round"/>
<path d="M31.0195 35.06C31.0195 36.71 29.6695 38.06 28.0195 38.06C27.1995 38.06 26.4395 37.72 25.8995 37.18C25.3595 36.64 25.0195 35.88 25.0195 35.06" stroke="#2E2A40" stroke-width="1.5" stroke-miterlimit="10"/>
<circle cx="34" cy="23" r="3.5" fill="#FC372D" stroke="white"/>
</svg>
