<svg width="39" height="37" viewBox="0 0 39 37" fill="none" xmlns="http://www.w3.org/2000/svg">
    <path d="M17.0152 33.9743L17.0145 33.9737C11.9837 29.2565 7.84719 25.3728 4.96256 21.7236C2.08389 18.0819 0.5 14.7317 0.5 11.0899C0.5 5.12025 5.01019 0.5 10.725 0.5C13.9605 0.5 17.079 2.06012 19.1153 4.51335L19.5 4.97687L19.8847 4.51335C21.921 2.06012 25.0395 0.5 28.275 0.5C33.9898 0.5 38.5 5.12025 38.5 11.0899C38.5 14.7317 36.9161 18.0819 34.0374 21.7236C31.1528 25.3728 27.0163 29.2565 21.9855 33.9737L21.9848 33.9743L19.5 36.3133L17.0152 33.9743Z" fill="#FF2626" stroke="#FF2626"/>
</svg>
