<svg width="14" height="14" viewBox="0 0 14 14" fill="none" xmlns="http://www.w3.org/2000/svg">
    <g clip-path="url(#clip0_547_812)">
    <path d="M12.9701 2.3333C12.9701 3.38037 12.1213 4.2292 11.0743 4.2292C10.0272 4.2292 9.17847 3.38037 9.17847 2.3333C9.17847 1.28633 10.0272 0.4375 11.0743 0.4375C12.1213 0.4375 12.9701 1.28633 12.9701 2.3333Z" fill="black"/>
    <path d="M11.0743 4.6667C9.7874 4.6667 8.74097 3.62016 8.74097 2.3333C8.74097 1.04654 9.7874 0 11.0743 0C12.3611 0 13.4076 1.04654 13.4076 2.3333C13.4076 3.62016 12.3611 4.6667 11.0743 4.6667ZM11.0743 0.875C10.2699 0.875 9.61597 1.52954 9.61597 2.3333C9.61597 3.13716 10.2699 3.7917 11.0743 3.7917C11.8787 3.7917 12.5326 3.13716 12.5326 2.3333C12.5326 1.52954 11.8787 0.875 11.0743 0.875Z" fill="black"/>
    <path d="M12.9701 11.6669C12.9701 12.7139 12.1213 13.5627 11.0743 13.5627C10.0272 13.5627 9.17847 12.7139 9.17847 11.6669C9.17847 10.6198 10.0272 9.771 11.0743 9.771C12.1213 9.771 12.9701 10.6198 12.9701 11.6669Z" fill="black"/>
    <path d="M11.0743 14.0002C9.7874 14.0002 8.74097 12.9537 8.74097 11.6669C8.74097 10.38 9.7874 9.3335 11.0743 9.3335C12.3611 9.3335 13.4076 10.38 13.4076 11.6669C13.4076 12.9537 12.3611 14.0002 11.0743 14.0002ZM11.0743 10.2085C10.2699 10.2085 9.61597 10.863 9.61597 11.6669C9.61597 12.4707 10.2699 13.1252 11.0743 13.1252C11.8787 13.1252 12.5326 12.4707 12.5326 11.6669C12.5326 10.863 11.8787 10.2085 11.0743 10.2085Z" fill="black"/>
    <path d="M4.80342 6.9998C4.80342 8.04687 3.95459 8.8956 2.90752 8.8956C1.86055 8.8956 1.01172 8.04687 1.01172 6.9998C1.01172 5.95273 1.86055 5.104 2.90752 5.104C3.95459 5.104 4.80342 5.95273 4.80342 6.9998Z" fill="black"/>
    <path d="M2.90752 9.3331C1.62076 9.3331 0.574219 8.28667 0.574219 6.9998C0.574219 5.71294 1.62076 4.6665 2.90752 4.6665C4.19438 4.6665 5.24092 5.71294 5.24092 6.9998C5.24092 8.28667 4.19438 9.3331 2.90752 9.3331ZM2.90752 5.5415C2.10312 5.5415 1.44922 6.19594 1.44922 6.9998C1.44922 7.80366 2.10312 8.4581 2.90752 8.4581C3.71202 8.4581 4.36592 7.80366 4.36592 6.9998C4.36592 6.19594 3.71202 5.5415 2.90752 5.5415Z" fill="black"/>
    <path d="M4.28484 6.72004C4.08179 6.72004 3.88462 6.6144 3.77727 6.42545C3.61802 6.14603 3.71607 5.7896 3.99549 5.62971L9.40817 2.54392C9.68758 2.38349 10.044 2.48154 10.2039 2.76203C10.3632 3.04145 10.2651 3.39788 9.9857 3.55778L4.57291 6.64356C4.48191 6.69547 4.38279 6.72004 4.28484 6.72004Z" fill="black"/>
    <path d="M9.69697 11.5324C9.59892 11.5324 9.4998 11.5079 9.40879 11.456L3.99602 8.37016C3.7166 8.21091 3.61866 7.85448 3.77791 7.57442C3.93653 7.29446 4.29349 7.19588 4.57355 7.35631L9.98632 10.4421C10.2657 10.6014 10.3637 10.9578 10.2044 11.2378C10.0966 11.4268 9.89938 11.5324 9.69697 11.5324Z" fill="black"/>
    </g>
    <defs>
    <clipPath id="clip0_547_812">
    <rect width="14" height="14" fill="white"/>
    </clipPath>
    </defs>
</svg>
