<svg width="21" height="20" viewBox="0 0 21 20" fill="none" xmlns="http://www.w3.org/2000/svg">
<path d="M18.7062 9.58335V12.9167C18.7062 15.8334 17.0351 17.0834 14.5286 17.0834H6.17361C3.6671 17.0834 1.99609 15.8334 1.99609 12.9167V7.08335C1.99609 4.16669 3.6671 2.91669 6.17361 2.91669H10.3511" stroke="#84818A" stroke-width="1.5" stroke-miterlimit="10" stroke-linecap="round" stroke-linejoin="round"/>
<path d="M6.17188 7.5L8.787 9.58333C9.64757 10.2667 11.0596 10.2667 11.9201 9.58333" stroke="#84818A" stroke-width="1.5" stroke-miterlimit="10" stroke-linecap="round" stroke-linejoin="round"/>
<path d="M16.5989 2.35001L16.8328 2.82501C16.9498 3.05834 17.2422 3.27501 17.5012 3.32501L17.8187 3.37501C18.7712 3.53334 18.9968 4.23334 18.3116 4.92501L18.0192 5.21667C17.8271 5.41667 17.7185 5.80001 17.7769 6.06667L17.8187 6.24168C18.0777 7.39168 17.4678 7.83333 16.4652 7.23333L16.248 7.10834C15.989 6.95834 15.5712 6.95834 15.3122 7.10834L15.095 7.23333C14.084 7.84167 13.4741 7.39168 13.7414 6.24168L13.7832 6.06667C13.8417 5.80001 13.7331 5.41667 13.5409 5.21667L13.2485 4.92501C12.5634 4.23334 12.789 3.53334 13.7414 3.37501L14.0589 3.32501C14.3096 3.28334 14.6104 3.05834 14.7273 2.82501L14.9613 2.35001C15.4124 1.44168 16.1477 1.44168 16.5989 2.35001Z" stroke="#84818A" stroke-width="1.5" stroke-linecap="round" stroke-linejoin="round"/>
</svg>
