<svg width="16" height="16" viewBox="0 0 16 16" fill="none" xmlns="http://www.w3.org/2000/svg">
    <g clip-path="url(#clip0_555_1329)">
    <path d="M7.99466 15.9998C7.942 15.9998 7.88866 15.9872 7.84066 15.9618L0.179333 11.9618C0.0693333 11.9045 0 11.7905 0 11.6665V4.1665C0 4.05116 0.06 3.94383 0.158 3.88316C0.256 3.8225 0.379333 3.81716 0.482 3.8685L8.14333 7.70183C8.256 7.7585 8.32733 7.87383 8.32733 7.99983V15.6665C8.32733 15.7832 8.26666 15.8912 8.16667 15.9518C8.11467 15.9838 8.05466 15.9998 7.99466 15.9998ZM0.666667 11.4645L7.66133 15.1165V8.20583L0.666667 4.70583V11.4645Z" fill="black"/>
    <path d="M8.00521 15.9998C7.94521 15.9998 7.88521 15.9838 7.83254 15.9518C7.73321 15.8912 7.67188 15.7832 7.67188 15.6665V7.99984C7.67188 7.87384 7.74321 7.75851 7.85588 7.70184L15.5172 3.86851C15.6192 3.81651 15.7432 3.82184 15.8412 3.88317C15.9399 3.94384 15.9999 4.05117 15.9999 4.16651V11.6665C15.9999 11.7905 15.9305 11.9045 15.8205 11.9618L8.15921 15.9618C8.11121 15.9872 8.05788 15.9998 8.00521 15.9998ZM8.33854 8.20584V15.1165L15.3332 11.4645V4.70584L8.33854 8.20584ZM15.6665 11.6665H15.6732H15.6665Z" fill="black"/>
    <path d="M0.33305 4.50015C0.210383 4.50015 0.0930497 4.43282 0.034383 4.31615C-0.0482837 4.15149 0.0190496 3.95149 0.183716 3.86882L7.85572 0.0354883C7.94972 -0.0111784 8.06038 -0.0111784 8.15372 0.0354883L15.8151 3.86882C15.9797 3.95149 16.0464 4.15149 15.9644 4.31615C15.8817 4.48082 15.6824 4.54682 15.5171 4.46549L8.00505 0.706155L0.482383 4.46482C0.434383 4.48882 0.383716 4.50015 0.33305 4.50015Z" fill="black"/>
    <path d="M12.0002 9.99978C11.8162 9.99978 11.6669 9.85045 11.6669 9.66645V6.20578L4.18953 2.46445C4.02487 2.38245 3.9582 2.18178 4.04087 2.01712C4.12353 1.85245 4.32353 1.78645 4.4882 1.86778L12.1495 5.70112C12.2622 5.75845 12.3335 5.87378 12.3335 5.99978V9.66645C12.3335 9.85045 12.1842 9.99978 12.0002 9.99978Z" fill="black"/>
    </g>
    <defs>
    <clipPath id="clip0_555_1329">
    <rect width="16" height="16" fill="white"/>
    </clipPath>
    </defs>
</svg>
